<?xml version="1.0" encoding="UTF-8" standalone="no"?>
<svg
   xmlns:dc="http://purl.org/dc/elements/1.1/"
   xmlns:cc="http://creativecommons.org/ns#"
   xmlns:rdf="http://www.w3.org/1999/02/22-rdf-syntax-ns#"
   xmlns:svg="http://www.w3.org/2000/svg"
   xmlns="http://www.w3.org/2000/svg"
   xmlns:sodipodi="http://sodipodi.sourceforge.net/DTD/sodipodi-0.dtd"
   xmlns:inkscape="http://www.inkscape.org/namespaces/inkscape"
   width="15"
   height="16"
   version="1.1"
   id="svg4487"
   sodipodi:docname="icon-cart-focus.svg"
   inkscape:version="0.92.0 r15299">
  <metadata
     id="metadata4493">
    <rdf:RDF>
      <cc:Work
         rdf:about="">
        <dc:format>image/svg+xml</dc:format>
        <dc:type
           rdf:resource="http://purl.org/dc/dcmitype/StillImage" />
        <dc:title></dc:title>
      </cc:Work>
    </rdf:RDF>
  </metadata>
  <defs
     id="defs4491" />
  <sodipodi:namedview
     pagecolor="#ffffff"
     bordercolor="#666666"
     borderopacity="1"
     objecttolerance="10"
     gridtolerance="10"
     guidetolerance="10"
     inkscape:pageopacity="0"
     inkscape:pageshadow="2"
     inkscape:window-width="2400"
     inkscape:window-height="1494"
     id="namedview4489"
     showgrid="false"
     inkscape:pagecheckerboard="true"
     inkscape:zoom="77.5625"
     inkscape:cx="7.5"
     inkscape:cy="8"
     inkscape:window-x="-11"
     inkscape:window-y="-11"
     inkscape:window-maximized="1"
     inkscape:current-layer="svg4487" />
  <path
     d="M14.383 10.388a2.397 2.397 0 0 0-1.518-2.222l1.494-5.593a.8.8 0 0 0-.144-.695.8.8 0 0 0-.631-.28H2.637L2.373.591A.8.8 0 0 0 1.598 0H0v1.598h.983l1.982 7.4a.8.8 0 0 0 .799.59h8.222a.8.8 0 0 1 0 1.599H1.598a.8.8 0 1 0 0 1.598h.943a2.397 2.397 0 1 0 4.507 0h1.885a2.397 2.397 0 1 0 4.331-.376 2.397 2.397 0 0 0 1.12-2.021ZM11.26 7.99H4.395L3.068 3.196h9.477L11.26 7.991Zm-6.465 6.392a.8.8 0 1 1 0-1.598.8.8 0 0 1 0 1.598Zm6.393 0a.8.8 0 1 1 0-1.598.8.8 0 0 1 0 1.598Z"
     fill="#FFF"
     id="path4485"
     style="fill:#437f68;fill-opacity:1" />
</svg>
